<svg xmlns="http://www.w3.org/2000/svg" width="201" height="79"><ellipse fill="#B3B4B5" cx="70.394" cy="74.298" rx="51.265" ry="3.543"/><path fill="#8DC73F" d="M60.138 8.041c-5.299-3.578-12.184-4.983-18.365-3.09-4.028 1.202-7.541 4.043-9.481 7.782-1.799 3.312-2.323 7.122-2.452 10.839 3.317-5.302 7.701-10.307 13.687-12.581-3.401 2.894-7.382 6.111-8.043 10.811-.415 2.25 1.789 4.453 4.041 3.701 3.326-1.001 4.507-4.65 6.402-7.193 3.236-5.108 8.73-8.123 14.211-10.269z"/><path fill="#09663A" d="M69.218 7.971c-.785-.716-1.51-1.724-2.673-1.786-2.064-.324-3.988 1.63-3.771 3.677-.004 1.237.984 2.072 1.691 2.961-.757.91-1.736 1.859-1.62 3.152-.069 2.229 2.383 4.074 4.487 3.212 1.359-.401 1.879-1.808 2.389-2.978 1.207 1.908 2.102 4.079 3.669 5.727 1.31.358 2.309-.824 3.159-1.622.739-.803 1.744-1.794 1.399-2.999-1.488-1.576-3.465-2.582-5.229-3.816 1.085-.663 2.442-1.28 2.728-2.662.694-2.074-1.01-4.542-3.24-4.435-1.225-.076-2.092.895-2.989 1.569z"/><path fill="#4DB733" d="M82.754 39.234c-2.004-.583-4.114 1.218-4.03 3.258-.069 1.853 1.649 3.548 3.515 3.343 1.919-.123 3.341-2.158 2.925-4.01-.223-1.226-1.19-2.293-2.41-2.591z"/><path fill="#09663A" d="M56.156 43.442c.479-4.377-2.209-8.292-5.039-11.357-2.636 1.675-5.056 3.967-6.057 7.005-1.46 4.146-.242 8.81 2.285 12.279-.224-4.11.564-8.477 3.366-11.647-.931 3.738-1.324 7.593-1.243 11.441 3.082-1.572 6.219-4.062 6.688-7.721z"/><path fill="#4DB733" d="M31.653 40.392c-2.407-1.412-5.159-2.095-7.909-2.441.29 4.955 1.966 10.084 5.785 13.442 2.955 2.696 6.98 3.731 10.877 4.036-3.94-2.697-7.947-5.694-10.155-10.059 3.71 2.979 7.229 6.35 11.693 8.172-1.82-5.36-5.311-10.316-10.291-13.15zM101.527 34.465c.675-1.451.915-3.059.964-4.648-2.813.436-5.649 1.671-7.358 4.034-1.379 1.834-1.751 4.188-1.713 6.429 1.326-2.396 2.818-4.847 5.188-6.344-1.497 2.28-3.229 4.472-4.027 7.12 2.961-1.331 5.6-3.594 6.946-6.591zM18.245 3.05c-2.471.298-4.896 1.445-5.928 3.836-2.613-.279-5.139.578-7.357 1.904 2.211.42 4.391.998 6.475 1.851 1.301-.845 2.718-1.484 4.226-1.84a26.727 26.727 0 012.584-5.751z"/><path fill="#C5DA17" d="M58.867.01a1.47 1.47 0 10-.34 2.92 1.47 1.47 0 00.34-2.92zM5.623 20.417c-.977-.453-2.21.293-2.297 1.357-.241 1.228 1.17 2.375 2.311 1.791 1.319-.524 1.31-2.634-.014-3.148zm91.876 3.615c-.977-.452-2.209.293-2.296 1.356-.242 1.228 1.169 2.375 2.31 1.791 1.319-.523 1.31-2.633-.014-3.147zM13.996 32.82c-1.522-.517-3.098 1.114-2.661 2.63.263 1.48 2.242 2.225 3.381 1.214 1.351-1.003.933-3.421-.72-3.844zM34.592.914a2.165 2.165 0 10-1.026 4.206A2.165 2.165 0 0034.592.914z"/><path fill="#80B41A" d="M19.202 45.021c-.477-.918-1.463-1.375-2.266-1.966-.075.988-.357 2.017-.113 3.009.398 1.16 1.551 1.776 2.463 2.471.108-1.153.544-2.429-.084-3.514zm.099 3.807c1.638.435 3.072-.288 3.896-1.69-1.6-.59-3.284.025-3.896 1.69z"/><path fill="#E71308" d="M85.148 24.795c.705-.768 1.062-2.194.165-2.954-.465-.205-.981-.232-1.477-.327-.414-.585-1.101-1.146-1.857-.792-1.533.693-1.881 2.95-.693 4.125.967 1.149 2.918 1.093 3.862-.052zm-1.021-3.625c.054-.599.28-1.261-.045-1.826-.249-.478-.761-.715-1.179-1.021-.038.514-.185 1.048-.059 1.563.209.604.807.924 1.283 1.284zm2.031-.725c-.832-.307-1.707.013-2.025.878.851.227 1.596-.149 2.025-.878zM18.73 49.194c-.798-1.126-2.118-2.205-3.573-1.522-2.95 1.333-3.62 5.675-1.335 7.937 1.861 2.209 5.615 2.104 7.431-.1 1.357-1.479 2.043-4.223.32-5.686-.896-.393-1.89-.445-2.843-.629zm-.015-26.393c1.253-.877 2.509-1.746 3.762-2.623-.483-2.192-.966-4.379-1.464-6.57a269.426 269.426 0 01-4.156 1.731c1.334-1.002 2.693-1.956 4.037-2.936-1.692-3.553-6.757-3.234-9.091-.612-.482.072-.895.555-.821 1.052a.79.79 0 00.033.169c-.16.356-.293.727-.358 1.131-.251 2.617 1.637 4.753 2.872 6.88 1.224-.518 2.449-1.036 3.676-1.55-1.04.775-2.095 1.534-3.143 2.306 1.888 2.339 3.631 4.905 6.131 6.638.974.753 2.78.93 3.261-.479.619-2.236-.413-4.506-.753-6.709-1.324.531-2.65 1.068-3.986 1.572zm68.408 5.559s-1.481 5.126-9.91 2.395c-2.12-.687-7.053-2.643-8.588.021-.68 1.178-.42 3.082.445 4.113 1.27 1.512 3.702 1.689 5.517 1.727 6.672.139 13.155-4.249 12.536-8.256z"/><path fill="#F99327" d="M36.195 29.944c-1.685-.611-3.342 1.365-2.603 2.941.47 1.398 2.481 1.823 3.467.717 1.135-1.068.653-3.227-.864-3.658zm29.42 13.224c-1.686-.61-3.342 1.366-2.602 2.942.47 1.398 2.48 1.822 3.466.717 1.134-1.068.654-3.228-.864-3.659zm-2.782-17.706a7.164 7.164 0 001.355-.609c.121-.072.233-.161.338-.256.127-.115.158-.258.115-.431a6.167 6.167 0 00-1.279-2.515 6.151 6.151 0 00-2.844-1.903 6.014 6.014 0 00-2.375-.275 6.067 6.067 0 00-2.15.577c-1.403.674-2.414 1.729-3.035 3.151a5.89 5.89 0 00-.48 2.873c.023.294.082.584.122.876.025.183.137.287.304.343a2.1 2.1 0 00.629.087c.638.015 1.271-.045 1.9-.137.6-.086 1.198-.19 1.797-.287.009-.002.018-.001.027-.002-.012.193-.027.384-.038.576-.027.478-.021.955.021 1.431.047.549.131 1.092.298 1.618.24.753.746 1.248 1.504 1.471a2.06 2.06 0 001.663-.2c.696-.401 1.065-1.015 1.119-1.817a2.515 2.515 0 00-.064-.653c-.1-.475-.24-.936-.415-1.387a10.73 10.73 0 00-.864-1.733l-.025-.046c.176-.05.35-.094.518-.149.62-.197 1.243-.39 1.859-.603z"/><path fill="#333" d="M200.087 3.561c-.654-2.03-4.15-2.748-5.94-3.103-2.885-.572-5.888-.409-8.754.186-5.019 1.041-45.48 13.445-50.326 15.112-4.924 1.694-10.076 2.791-15.281 2.962-10.08.33-20.941-1.956-30.705 1.424 5.141.94 10.461-.269 15.917 1.339 2.885.85 6.071 2.27 6.938 5.149.702 2.331-.405 4.826-1.83 6.799-2.93 4.055-7.203 6.929-11.592 9.332-10.842 5.936-22.815 9.467-34.762 12.638-12.205 3.239-24.655 6.17-37.28 5.993-4.992-.07-10.015-.637-14.752-2.212-2.871-.955-5.908-2.594-6.778-5.493-1.267-4.217 2.646-8.063 6.143-10.74-4.971 1.021-9.021 5.111-10.49 9.926-.55 1.801-.738 3.703-.479 5.584C.742 63 3.637 67.022 7.325 69.751s8.119 4.284 12.589 5.319c22.424 5.191 49.541-.079 70.956-12.064 5.009-2.804 9.704-5.976 13.953-9.466 9.306-7.389 11.654-12.195 11.654-12.195l-2.094 1.972c.683-.822 1.379-1.529 2.094-1.972-5.677 3.515-10.703 7.992-16.294 11.646-5.59 3.654-12.021 6.527-18.693 6.242 13.344-3.787 24.399-12.896 35.416-21.324 11.017-8.426 58.86-26.799 72.654-28.252 2.181-.23 4.405-.368 6.501-1.067 1.968-.656 4.835-2.521 4.026-5.029zM49.576 66.717a1.986 1.986 0 01-.408.521c-3.112 2.934-8.807 3.555-12.798 4.174-4.862.755-9.87.896-14.69-.134-3.359-.718-6.671-2.077-9.165-4.544-5.179-5.123 2.802-2.693 5.722-1.603 3.063 1.144 6.402 1.669 9.65 1.904 6.792.493 13.806-1.077 20.621-1.338.426-.016.95.03 1.118.429.083.195.046.399-.05.591zM185.62 5.842c-1.76.397-3.673.706-5.479 1.121-1.771.407-3.463 1.11-5.252 1.448-.915.173-3.244.874-3.862-.179-.448-.764.672-1.458 1.206-1.686 3.475-1.478 7.127-2.473 10.797-3.278 1.778-.39 4.687-1.294 6.248.065 1.699 1.479-2.931 2.346-3.658 2.509z"/></svg>